:FULLY-SPECIFIED
:FORCE-ALL-JOINTS-BE-3DOF
:DEGREES
2854
root -6.09106 13.2691 -28.8166 1240.9 -66.6288 -159.235
lfemur -65.5583 44.9814 -5.57711
ltibia 77.1105 0 0
lfoot -4.74661 -6.06323 0
ltoes -28.5431 0 0
rfemur -31.2003 -19.2048 22.4407
rtibia 88.8725 0 0
rfoot -41.2695 -28.4301 0
rtoes -13.9509 0 0
lowerback 15.7213 5.67196 0.904027
upperback -4.48796 8.03769 1.65386
thorax -13.9827 3.72544 -0.867756
lowerneck -2.51521 9.63381 2.20087
upperneck 9.08943 12.5423 2.09439
head 3.37155 6.33698 0.77143
lclavicle 2.95816e-14 -6.0077e-15 0
lhumerus 5.43421 12.3371 84.3478
lradius 93.4299 0 0
lwrist -19.026 0 0
lhand -39.3784 388.279 0
lfingers 7.12502 0 0
lthumb -12.4995 -662.246 0
rclavicle -5.37448e-14 -1.01247e-14 0
rhumerus -59.0849 50.8692 -111.471
rradius 113.628 0 0
rwrist -83.7504 0 0
rhand 7.97007 -386.034 0
rfingers 7.12502 0 0
rthumb 32.9286 306.988 0
2855
root -6.09253 13.2651 -28.815 1240.78 -66.6527 -159.075
lfemur -65.6161 44.9789 -5.57989
ltibia 77.1427 0 0
lfoot -4.7787 -6.08137 0
ltoes -28.5881 0 0
rfemur -31.2178 -19.2013 22.4628
rtibia 88.9004 0 0
rfoot -41.29 -28.4422 0
rtoes -13.9321 0 0
lowerback 15.7069 5.6403 0.983034
upperback -4.49673 8.01236 1.66266
thorax -13.9742 3.70758 -0.893024
lowerneck -2.52307 9.63262 2.19849
upperneck 9.11441 12.5401 2.09344
head 3.38164 6.33572 0.772945
lclavicle 2.79623e-14 -7.09733e-15 0
lhumerus 5.46037 12.3421 84.3454
lradius 93.4097 0 0
lwrist -19.0302 0 0
lhand -39.3657 388.24 0
lfingers 7.12502 0 0
lthumb -12.4886 -662.289 0
rclavicle -5.22034e-14 -9.62114e-15 0
rhumerus -59.0913 50.8841 -111.484
rradius 113.623 0 0
rwrist -83.7322 0 0
rhand 7.96227 -386.03 0
rfingers 7.12502 0 0
rthumb 32.9379 306.999 0
2856
root -6.09322 13.2624 -28.8137 1240.73 -66.7042 -158.979
lfemur -65.6739 44.9764 -5.58266
ltibia 77.1749 0 0
lfoot -4.8108 -6.09951 0
ltoes -28.633 0 0
rfemur -31.2353 -19.1977 22.4848
rtibia 88.9283 0 0
rfoot -41.3105 -28.4542 0
rtoes -13.9133 0 0
lowerback 15.6969 5.6177 1.03436
upperback -4.51268 7.99174 1.65318
thorax -13.9778 3.69297 -0.925572
lowerneck -2.51992 9.62416 2.24297
upperneck 9.13048 12.5292 2.05396
head 3.39278 6.33016 0.753994
lclavicle 2.63431e-14 -8.18697e-15 0
lhumerus 5.48654 12.3471 84.343
lradius 93.3895 0 0
lwrist -19.0344 0 0
lhand -39.353 388.201 0
lfingers 7.12502 0 0
lthumb -12.4776 -662.333 0
rclavicle -5.0662e-14 -9.11755e-15 0
rhumerus -59.0977 50.8991 -111.497
rradius 113.619 0 0
rwrist -83.714 0 0
rhand 7.95446 -386.026 0
rfingers 7.12502 0 0
rthumb 32.9471 307.011 0
2857
root -6.09392 13.2596 -28.8131 1240.66 -66.7331 -158.876
lfemur -65.7318 44.9739 -5.58543
ltibia 77.2071 0 0
lfoot -4.84289 -6.11765 0
ltoes -28.678 0 0
rfemur -31.2528 -19.1941 22.5069
rtibia 88.9562 0 0
rfoot -41.331 -28.4662 0
rtoes -13.8945 0 0
lowerback 15.6798 5.60624 1.06061
upperback -4.51975 7.98291 1.6644
thorax -13.9738 3.68739 -0.923678
lowerneck -2.54576 9.62974 2.25375
upperneck 9.16399 12.536 2.03988
head 3.41119 6.33341 0.751245
lclavicle 2.47238e-14 -9.2766e-15 0
lhumerus 5.51271 12.3522 84.3405
lradius 93.3693 0 0
lwrist -19.0386 0 0
lhand -39.3403 388.163 0
lfingers 7.12502 0 0
lthumb -12.4667 -662.376 0
rclavicle -4.91206e-14 -8.61397e-15 0
rhumerus -59.104 50.9141 -111.51
rradius 113.614 0 0
rwrist -83.6958 0 0
rhand 7.94665 -386.022 0
rfingers 7.12502 0 0
rthumb 32.9563 307.022 0
2858
root -6.09372 13.2565 -28.8117 1240.6 -66.7614 -158.797
lfemur -65.7896 44.9714 -5.58821
ltibia 77.2393 0 0
lfoot -4.87498 -6.13579 0
ltoes -28.723 0 0
rfemur -31.2906 -19.1734 22.5042
rtibia 88.9841 0 0
rfoot -41.3515 -28.4783 0
rtoes -13.8757 0 0
lowerback 15.6882 5.58521 1.06748
upperback -4.51262 7.95913 1.69128
thorax -13.974 3.67709 -0.891822
lowerneck -2.53288 9.6287 2.23076
upperneck 9.12378 12.54 2.0099
head 3.39523 6.33364 0.743133
lclavicle 2.31045e-14 -1.03662e-14 0
lhumerus 5.53887 12.3572 84.3381
lradius 93.3492 0 0
lwrist -19.0428 0 0
lhand -39.3276 388.124 0
lfingers 7.12502 0 0
lthumb -12.4557 -662.419 0
rclavicle -4.75791e-14 -8.11038e-15 0
rhumerus -59.1104 50.9291 -111.523
rradius 113.61 0 0
rwrist -83.6776 0 0
rhand 7.93884 -386.018 0
rfingers 7.12502 0 0
rthumb 32.9655 307.034 0
2859
root -6.09359 13.254 -28.8112 1240.6 -66.781 -158.786
lfemur -65.8475 44.9689 -5.59098
ltibia 77.2715 0 0
lfoot -4.90707 -6.15394 0
ltoes -28.7679 0 0
rfemur -31.3285 -19.1527 22.5015
rtibia 89.012 0 0
rfoot -41.372 -28.4903 0
rtoes -13.8569 0 0
lowerback 15.6935 5.59617 1.08366
upperback -4.51118 7.97703 1.68876
thorax -13.9727 3.68382 -0.908731
lowerneck -2.53452 9.62403 2.22431
upperneck 9.1073 12.5367 1.98678
head 3.39101 6.33101 0.73623
lclavicle 2.14853e-14 -1.14559e-14 0
lhumerus 5.56504 12.3622 84.3356
lradius 93.329 0 0
lwrist -19.047 0 0
lhand -39.3149 388.085 0
lfingers 7.12502 0 0
lthumb -12.4441 -662.423 0
rclavicle -4.60377e-14 -7.6068e-15 0
rhumerus -59.1168 50.944 -111.536
rradius 113.606 0 0
rwrist -83.6613 0 0
rhand 7.93104 -386.014 0
rfingers 7.12502 0 0
rthumb 32.9747 307.045 0
2860
root -6.09353 13.2502 -28.8107 1240.67 -66.8001 -158.846
lfemur -65.8771 44.9669 -5.6078
ltibia 77.3037 0 0
lfoot -4.93916 -6.17208 0
ltoes -28.8129 0 0
rfemur -31.3663 -19.132 22.4988
rtibia 89.0399 0 0
rfoot -41.3925 -28.5023 0
rtoes -13.8381 0 0
lowerback 15.6965 5.60088 1.04487
upperback -4.51035 7.97518 1.68676
thorax -13.9789 3.68607 -0.889639
lowerneck -2.54178 9.63205 2.21516
upperneck 9.10343 12.547 1.99802
head 3.38955 6.33632 0.741794
lclavicle 1.9866e-14 -1.25455e-14 0
lhumerus 5.5912 12.3673 84.3332
lradius 93.3088 0 0
lwrist -19.0511 0 0
lhand -39.3022 388.046 0
lfingers 7.12502 0 0
lthumb -12.4324 -662.428 0
rclavicle -4.44963e-14 -7.10321e-15 0
rhumerus -59.1232 50.959 -111.549
rradius 113.601 0 0
rwrist -83.645 0 0
rhand 7.92323 -386.01 0
rfingers 7.12502 0 0
rthumb 32.9839 307.057 0
2861
root -6.093 13.2483 -28.8093 1240.78 -66.8232 -158.976
lfemur -65.9066 44.9649 -5.62461
ltibia 77.3359 0 0
lfoot -4.97125 -6.19022 0
ltoes -28.8579 0 0
rfemur -31.4041 -19.1113 22.4961
rtibia 89.0678 0 0
rfoot -41.413 -28.5144 0
rtoes -13.8193 0 0
lowerback 15.7125 5.60557 0.978502
upperback -4.50008 7.96772 1.68615
thorax -13.986 3.68811 -0.853298
lowerneck -2.52387 9.64085 2.21309
upperneck 9.06355 12.5599 2.00202
head 3.37184 6.34287 0.741085
lclavicle 1.82467e-14 -1.36351e-14 0
lhumerus 5.61737 12.3723 84.3308
lradius 93.2886 0 0
lwrist -19.0553 0 0
lhand -39.2895 388.007 0
lfingers 7.12502 0 0
lthumb -12.4208 -662.432 0
rclavicle -4.29549e-14 -6.59962e-15 0
rhumerus -59.1296 50.974 -111.562
rradius 113.597 0 0
rwrist -83.6288 0 0
rhand 7.91542 -386.006 0
rfingers 7.12502 0 0
rthumb 32.9931 307.068 0
2862
root -6.09281 13.2459 -28.8076 1240.81 -66.836 -159.009
lfemur -65.9362 44.9628 -5.64143
ltibia 77.3681 0 0
lfoot -5.00335 -6.20836 0
ltoes -28.9028 0 0
rfemur -31.442 -19.0905 22.4935
rtibia 89.0957 0 0
rfoot -41.4335 -28.5264 0
rtoes -13.8005 0 0
lowerback 15.7416 5.61126 0.98848
upperback -4.49998 7.97762 1.68142
thorax -14.0014 3.69088 -0.869691
lowerneck -2.51925 9.65502 2.14446
upperneck 9.04122 12.5767 2.08144
head 3.35236 6.35204 0.775539
lclavicle 1.66275e-14 -1.47248e-14 0
lhumerus 5.64353 12.3773 84.3283
lradius 93.2684 0 0
lwrist -19.0595 0 0
lhand -39.2768 387.968 0
lfingers 7.12502 0 0
lthumb -12.4092 -662.437 0
rclavicle -4.14135e-14 -6.09604e-15 0
rhumerus -59.136 50.989 -111.575
rradius 113.592 0 0
rwrist -83.6125 0 0
rhand 7.90761 -386.002 0
rfingers 7.12502 0 0
rthumb 32.9972 307.08 0
2863
root -6.09309 13.2413 -28.8043 1240.81 -66.832 -159.015
lfemur -65.9658 44.9608 -5.65824
ltibia 77.4003 0 0
lfoot -5.03544 -6.2265 0
ltoes -28.9478 0 0
rfemur -31.4798 -19.0698 22.4908
rtibia 89.1236 0 0
rfoot -41.454 -28.5384 0
rtoes -13.7817 0 0
lowerback 15.781 5.61527 1.03648
upperback -4.50873 7.99179 1.66036
thorax -14.0252 3.69108 -0.927488
lowerneck -2.52849 9.65764 2.15896
upperneck 9.0702 12.5734 2.13704
head 3.36119 6.35284 0.792215
lclavicle 1.50082e-14 -1.58144e-14 0
lhumerus 5.6697 12.3823 84.3259
lradius 93.2482 0 0
lwrist -19.0637 0 0
lhand -39.2641 387.929 0
lfingers 7.12502 0 0
lthumb -12.3975 -662.441 0
rclavicle -3.98721e-14 -5.59245e-15 0
rhumerus -59.1424 51.004 -111.588
rradius 113.588 0 0
rwrist -83.5962 0 0
rhand 7.89981 -385.998 0
rfingers 7.12502 0 0
rthumb 33.0012 307.092 0
2864
root -6.09361 13.2403 -28.8017 1240.87 -66.8391 -159.085
lfemur -65.9953 44.9588 -5.67506
ltibia 77.4324 0 0
lfoot -5.06753 -6.24464 0
ltoes -28.9928 0 0
rfemur -31.5176 -19.0491 22.4881
rtibia 89.1515 0 0
rfoot -41.4745 -28.5505 0
rtoes -13.7629 0 0
lowerback 15.8073 5.63907 1.08146
upperback -4.52089 8.02843 1.61117
thorax -14.0407 3.7008 -1.01961
lowerneck -2.53537 9.63129 2.26292
upperneck 9.11245 12.5322 2.11567
head 3.38636 6.33481 0.770401
lclavicle 1.33889e-14 -1.6904e-14 0
lhumerus 5.69586 12.3874 84.3234
lradius 93.2332 0 0
lwrist -19.0482 0 0
lhand -39.2514 387.89 0
lfingers 7.12502 0 0
lthumb -12.3859 -662.445 0
rclavicle -3.83307e-14 -5.08886e-15 0
rhumerus -59.1488 51.0189 -111.601
rradius 113.579 0 0
rwrist -83.5799 0 0
rhand 7.892 -385.994 0
rfingers 7.12502 0 0
rthumb 33.0053 307.104 0
2865
root -6.0945 13.2392 -28.8005 1240.87 -66.9145 -159.073
lfemur -66.0249 44.9568 -5.69187
ltibia 77.4646 0 0
lfoot -5.09962 -6.26278 0
ltoes -29.0377 0 0
rfemur -31.5555 -19.0284 22.4854
rtibia 89.1721 0 0
rfoot -41.495 -28.5625 0
rtoes -13.744 0 0
lowerback 15.8104 5.61117 1.08119
upperback -4.51933 7.99185 1.62026
thorax -14.0424 3.68431 -0.999663
lowerneck -2.57023 9.64276 2.21848
upperneck 9.16262 12.5454 2.14951
head 3.40474 6.34128 0.792438
lclavicle 1.17697e-14 -1.79937e-14 0
lhumerus 5.72203 12.3924 84.321
lradius 93.2182 0 0
lwrist -19.0327 0 0
lhand -39.2493 387.887 0
lfingers 7.12502 0 0
lthumb -12.3743 -662.45 0
rclavicle -3.67893e-14 -4.58528e-15 0
rhumerus -59.1552 51.0339 -111.614
rradius 113.57 0 0
rwrist -83.5636 0 0
rhand 7.88419 -385.99 0
rfingers 7.12502 0 0
rthumb 33.0094 307.115 0
2866
root -6.09555 13.237 -28.7961 1240.8 -66.8768 -158.947
lfemur -66.0545 44.9548 -5.70869
ltibia 77.4968 0 0
lfoot -5.13171 -6.28092 0
ltoes -29.0827 0 0
rfemur -31.5933 -19.0077 22.4827
rtibia 89.1927 0 0
rfoot -41.4779 -28.5855 0
rtoes -13.7252 0 0
lowerback 15.7997 5.61018 1.1996
upperback -4.54753 8.01505 1.6122
thorax -14.0506 3.68389 -1.07971
lowerneck -2.56735 9.64 2.25347
upperneck 9.18354 12.5404 2.13401
head 3.41519 6.33926 0.782815
lclavicle 1.01504e-14 -1.90833e-14 0
lhumerus 5.70101 12.4092 84.3078
lradius 93.2032 0 0
lwrist -19.0172 0 0
lhand -39.2472 387.885 0
lfingers 7.12502 0 0
lthumb -12.3626 -662.454 0
rclavicle -3.52479e-14 -4.08169e-15 0
rhumerus -59.1615 51.0489 -111.627
rradius 113.561 0 0
rwrist -83.5474 0 0
rhand 7.87638 -385.986 0
rfingers 7.12502 0 0
rthumb 33.0134 307.127 0
